<?xml version="1.0" encoding="utf-8"?>
<!-- Generator: Adobe Illustrator 16.0.4, SVG Export Plug-In . SVG Version: 6.00 Build 0)  -->
<!DOCTYPE svg PUBLIC "-//W3C//DTD SVG 1.1//EN" "http://www.w3.org/Graphics/SVG/1.1/DTD/svg11.dtd">
<svg version="1.1" id="Layer_1" xmlns="http://www.w3.org/2000/svg" xmlns:xlink="http://www.w3.org/1999/xlink" x="0px" y="0px"
	 width="200px" height="200px" viewBox="-89.5 -89.5 200 200" enable-background="new -89.5 -89.5 200 200" xml:space="preserve">
<g>
	<path d="M-2.578-84.613c-41.93,0-75.922,33.99-75.922,75.922c0,41.933,33.992,75.921,75.922,75.921
		c41.928,0,75.922-33.991,75.922-75.921C73.344-50.621,39.35-84.613-2.578-84.613z M-2.578,49.137
		c-31.936,0-57.828-25.891-57.828-57.83c0-31.938,25.891-57.825,57.828-57.825s57.826,25.89,57.826,57.825
		C55.248,23.244,29.359,49.137-2.578,49.137z"/>
	<polygon points="28.258,60.998 86.65,107.5 103.5,107.5 52.875,28.912 	"/>
	<path fill="#084CAE" d="M30.949-7.496c0,19.792-16.047,35.835-35.84,35.835c-19.791,0-35.836-16.043-35.836-35.835
		s16.045-35.838,35.836-35.838v35.838H30.949z"/>
	<path fill="#6B93CE" d="M-0.268-47.957c19.795,0,35.838,16.044,35.838,35.837H-0.268V-47.957z"/>
</g>
</svg>
